<svg xmlns="http://www.w3.org/2000/svg" viewBox="0 0 1600 1000">
<defs>
  <linearGradient id="bg" x1="0" y1="0" x2="1" y2="1"><stop stop-color="#061522"/><stop offset="1" stop-color="#091a28"/></linearGradient>
  <radialGradient id="fea" cx=".54" cy=".58"><stop stop-color="#ff3822"/><stop offset=".18" stop-color="#f4cc2e"/><stop offset=".42" stop-color="#1dc0d6"/><stop offset=".72" stop-color="#1558a5"/><stop offset="1" stop-color="#0a1e31"/></radialGradient>
  <pattern id="mesh" width="36" height="36" patternUnits="userSpaceOnUse"><path d="M0 0L36 36M36 0L0 36" stroke="#8bd8f6" stroke-width="1" opacity=".52"/></pattern>
</defs>
<rect width="1600" height="1000" fill="url(#bg)"/>
<path d="M370 190C520 130 780 170 880 300C970 420 930 560 1080 650C1180 710 1300 770 1260 850H380C320 760 300 640 360 540C430 420 280 270 370 190Z" fill="url(#fea)"/>
<path d="M370 190C520 130 780 170 880 300C970 420 930 560 1080 650C1180 710 1300 770 1260 850H380C320 760 300 640 360 540C430 420 280 270 370 190Z" fill="url(#mesh)"/>
<g fill="none" stroke="#85d9fa" stroke-width="5" opacity=".8">
  <circle cx="470" cy="420" r="110"/><circle cx="1050" cy="690" r="95"/>
  <path d="M470 310V530M360 420H580M1050 595V785M955 690H1145"/>
</g>
<text x="120" y="900" fill="#83bfe2" font-family="monospace" font-size="28" letter-spacing="6">MESH · RESPONSE · ITERATION · OPTIMISATION</text>
</svg>