<svg xmlns="http://www.w3.org/2000/svg" viewBox="0 0 1600 1000">
<defs>
  <linearGradient id="bg" x1="0" y1="0" x2="1" y2="1"><stop stop-color="#061522"/><stop offset="1" stop-color="#0a2031"/></linearGradient>
  <pattern id="grid" width="50" height="50" patternUnits="userSpaceOnUse"><path d="M50 0H0V50" fill="none" stroke="#1f4a67" stroke-width="1"/></pattern>
</defs>
<rect width="1600" height="1000" fill="url(#bg)"/><rect width="1600" height="1000" fill="url(#grid)" opacity=".45"/>
<g fill="none" stroke="#52bee9" stroke-width="7">
  <path d="M160 240H1440M160 430H1440M160 620H1440M160 810H1440"/>
  <path d="M250 240V810M550 240V810M850 240V810M1150 240V810"/>
</g>
<path d="M250 620C420 620 420 430 550 430S730 620 850 620S980 430 1150 430S1280 620 1440 620" fill="none" stroke="#f26734" stroke-width="14"/>
<g fill="#061522" stroke="#7cd8fb" stroke-width="8">
  <circle cx="250" cy="620" r="26"/><circle cx="550" cy="430" r="26"/><circle cx="850" cy="620" r="26"/><circle cx="1150" cy="430" r="26"/><circle cx="1440" cy="620" r="26"/>
</g>
<g fill="#f26734"><rect x="205" y="180" width="90" height="120"/><rect x="505" y="330" width="90" height="160"/><rect x="805" y="500" width="90" height="120"/><rect x="1105" y="300" width="90" height="130"/></g>
<circle cx="1340" cy="220" r="95" fill="none" stroke="#52bee9" stroke-width="18" stroke-dasharray="470 130" transform="rotate(-90 1340 220)"/>
<text x="1300" y="235" fill="#fff" font-family="sans-serif" font-size="42" font-weight="700">72%</text>
<text x="120" y="900" fill="#83bfe2" font-family="monospace" font-size="28" letter-spacing="6">SCOPE · PLAN · CONTROL · DELIVER</text>
</svg>