<svg xmlns="http://www.w3.org/2000/svg" viewBox="0 0 1600 1000">
<defs>
  <linearGradient id="bg" x1="0" y1="0" x2="1" y2="1"><stop stop-color="#061522"/><stop offset="1" stop-color="#0a2031"/></linearGradient>
  <radialGradient id="hot"><stop stop-color="#ff3d20"/><stop offset=".25" stop-color="#f4c72c"/><stop offset=".55" stop-color="#17bfd6"/><stop offset="1" stop-color="#15549c" stop-opacity="0"/></radialGradient>
  <pattern id="grid" width="50" height="50" patternUnits="userSpaceOnUse"><path d="M50 0H0V50" fill="none" stroke="#1f4a67" stroke-width="1"/></pattern>
</defs>
<rect width="1600" height="1000" fill="url(#bg)"/><rect width="1600" height="1000" fill="url(#grid)" opacity=".45"/>
<g fill="none" stroke="#55c0ec" stroke-width="8">
  <path d="M180 700L470 260L760 700M470 260L1080 260M760 700L1080 260L1370 700"/>
  <path d="M220 620H1330M310 490H1240M395 360H1155"/>
  <path d="M180 700L1080 260M470 260L1370 700"/>
</g>
<g fill="#061522" stroke="#9ee2ff" stroke-width="6"><circle cx="470" cy="260" r="18"/><circle cx="760" cy="700" r="18"/><circle cx="1080" cy="260" r="18"/></g>
<circle cx="760" cy="700" r="240" fill="url(#hot)" opacity=".95"/>
<g stroke="#f26734" stroke-width="10"><path d="M760 80V190"/><path d="M730 160L760 195L790 160"/></g>
<text x="120" y="900" fill="#83bfe2" font-family="monospace" font-size="28" letter-spacing="6">LOAD PATH · CAPACITY · VERIFICATION</text>
</svg>